<?xml version="1.0" encoding="UTF-8"?>
<svg id="Layer_2" data-name="Layer 2" xmlns="http://www.w3.org/2000/svg" xmlns:xlink="http://www.w3.org/1999/xlink" viewBox="0 0 1182.8 1215.71">
  <defs>
    <style>
      .cls-1 {
        fill: #f4f4f4;
      }

      .cls-2 {
        fill: url(#linear-gradient);
      }
    </style>
    <linearGradient id="linear-gradient" x1="622.41" y1="724.62" x2="583.75" y2="176.4" gradientUnits="userSpaceOnUse">
      <stop offset="0" stop-color="#3987e9"/>
      <stop offset="1" stop-color="#39e9e6"/>
    </linearGradient>
  </defs>
  <g id="color">
    <g>
      <g>
        <g>
          <path class="cls-1" d="M0,1051.14v-153.41h120.32v33.53H43.39v33.75h67.72v33.53H43.39v52.6H0Z"/>
          <path class="cls-1" d="M222.45,1054.21c-22.65,0-40.33-6.17-53.04-18.52-12.71-12.34-19.07-29.99-19.07-52.93v-85.03h43.39v83.72c0,13.15,2.59,22.57,7.78,28.27,5.18,5.7,12.31,8.55,21.37,8.55s16.14-2.85,21.26-8.55c5.11-5.7,7.67-15.12,7.67-28.27v-83.72h42.74v85.03c0,22.94-6.36,40.58-19.07,52.93-12.71,12.35-30.39,18.52-53.04,18.52Z"/>
          <path class="cls-1" d="M334.88,1051.14v-153.41h43.39v119h73.2v34.41h-116.59Z"/>
          <path class="cls-1" d="M553.6,1054.21c-12.13,0-23.34-1.97-33.64-5.92-10.3-3.94-19.21-9.46-26.74-16.55-7.53-7.09-13.41-15.49-17.64-25.2-4.24-9.71-6.36-20.42-6.36-32.11s2.12-22.39,6.36-32.11c4.24-9.71,10.12-18.11,17.64-25.2,7.52-7.09,16.44-12.6,26.74-16.55,10.3-3.94,21.51-5.92,33.64-5.92,14.17,0,26.85,2.49,38.02,7.45,11.18,4.97,20.49,12.13,27.94,21.48l-27.61,24.98c-4.82-5.84-10.23-10.3-16.22-13.37-5.99-3.07-12.64-4.6-19.94-4.6-8.48,0-15.89,1.83-22.24,5.48-6.36,3.65-11.36,8.77-15.01,15.34-3.65,6.57-5.48,14.25-5.48,23.01s1.83,16.44,5.48,23.01c3.65,6.57,8.66,11.69,15.01,15.34,6.36,3.65,13.77,5.48,22.24,5.48,7.3,0,13.95-1.53,19.94-4.6,5.99-3.07,11.4-7.52,16.22-13.37l27.61,24.98c-7.45,9.35-16.77,16.51-27.94,21.48-11.18,4.97-23.85,7.45-38.02,7.45Z"/>
          <path class="cls-1" d="M648.05,1051.14v-153.41h68.6c22.5,0,39.74,5.08,51.72,15.23,11.98,10.16,17.97,24,17.97,41.53,0,11.25-2.63,21.01-7.89,29.26-5.26,8.26-12.71,14.65-22.35,19.18l33.31,48.22h-46.46l-27.83-40.76h-23.67v40.76h-43.39ZM691.45,976.85h24.11c9.06,0,15.81-1.97,20.27-5.92,4.46-3.94,6.68-9.42,6.68-16.44s-2.23-12.71-6.68-16.66c-4.46-3.94-11.21-5.92-20.27-5.92h-24.11v44.93Z"/>
          <path class="cls-1" d="M891.98,1054.21c-22.65,0-40.33-6.17-53.04-18.52-12.71-12.34-19.07-29.99-19.07-52.93v-85.03h43.39v83.72c0,13.15,2.59,22.57,7.78,28.27,5.18,5.7,12.31,8.55,21.37,8.55s16.14-2.85,21.26-8.55c5.11-5.7,7.67-15.12,7.67-28.27v-83.72h42.74v85.03c0,22.94-6.36,40.58-19.07,52.93-12.71,12.35-30.39,18.52-53.04,18.52Z"/>
          <path class="cls-1" d="M1004.4,1051.14v-153.41h35.72l53.91,88.76,52.6-88.76h35.72l.44,153.41h-39.89l-.44-81.31-39.45,66.19h-19.29l-39.23-63.99v79.12h-40.11Z"/>
        </g>
        <g>
          <path class="cls-1" d="M125.69,1214.52v-104.32h73.62v12.96h-58.72v36.36h52.31v12.82h-52.31v42.17h-14.9Z"/>
          <path class="cls-1" d="M296.03,1215.71c-8.05,0-15.45-1.34-22.21-4.02-6.76-2.68-12.62-6.41-17.59-11.18-4.97-4.77-8.84-10.41-11.62-16.91-2.78-6.51-4.17-13.58-4.17-21.24s1.39-14.73,4.17-21.24c2.78-6.51,6.66-12.15,11.62-16.91,4.97-4.77,10.83-8.5,17.59-11.18,6.75-2.68,14.16-4.02,22.21-4.02s15.27,1.32,21.98,3.95c6.7,2.63,12.57,6.36,17.58,11.18,5.02,4.82,8.89,10.48,11.63,16.99,2.73,6.51,4.1,13.59,4.1,21.24s-1.37,14.73-4.1,21.24c-2.74,6.51-6.61,12.17-11.63,16.99-5.02,4.82-10.88,8.55-17.58,11.18-6.71,2.63-14.03,3.95-21.98,3.95ZM296.03,1202.44c7.65,0,14.53-1.74,20.64-5.22,6.11-3.48,10.93-8.24,14.46-14.31,3.52-6.06,5.29-12.92,5.29-20.57s-1.77-14.5-5.29-20.57c-3.53-6.06-8.35-10.83-14.46-14.31-6.11-3.48-12.99-5.22-20.64-5.22s-14.83,1.74-20.94,5.22c-6.11,3.48-10.93,8.25-14.46,14.31-3.53,6.06-5.29,12.92-5.29,20.57s1.76,14.51,5.29,20.57c3.53,6.06,8.35,10.83,14.46,14.31,6.11,3.48,13.09,5.22,20.94,5.22Z"/>
          <path class="cls-1" d="M447.14,1215.71c-13.71,0-24.49-3.92-32.34-11.77-7.85-7.85-11.77-19.32-11.77-34.43v-59.31h14.9v58.72c0,11.53,2.56,19.99,7.68,25.41,5.11,5.42,12.34,8.12,21.68,8.12s16.71-2.71,21.83-8.12c5.12-5.41,7.68-13.88,7.68-25.41v-58.72h14.46v59.31c0,15.1-3.9,26.58-11.7,34.43-7.8,7.85-18.6,11.77-32.41,11.77Z"/>
          <path class="cls-1" d="M551.61,1214.52v-104.32h12.22l62.59,77.79v-77.79h14.9v104.32h-12.22l-62.59-77.79v77.79h-14.9Z"/>
          <path class="cls-1" d="M702.42,1214.52v-104.32h43.96c11.13,0,20.94,2.19,29.43,6.56,8.5,4.37,15.1,10.48,19.82,18.33,4.72,7.85,7.08,16.94,7.08,27.27s-2.36,19.42-7.08,27.27c-4.72,7.85-11.33,13.96-19.82,18.33-8.49,4.37-18.31,6.56-29.43,6.56h-43.96ZM717.33,1201.55h28.17c8.64,0,16.12-1.64,22.43-4.92,6.31-3.28,11.2-7.85,14.68-13.71,3.48-5.86,5.22-12.72,5.22-20.57s-1.74-14.7-5.22-20.57c-3.48-5.86-8.37-10.43-14.68-13.71-6.31-3.28-13.78-4.92-22.43-4.92h-28.17v78.39Z"/>
          <path class="cls-1" d="M855.33,1214.52v-104.32h40.68c13.51,0,24.14,3.23,31.89,9.69,7.75,6.46,11.62,15.35,11.62,26.68,0,8.15-1.99,15.03-5.96,20.64-3.97,5.61-9.64,9.71-16.99,12.3l24.74,35.02h-16.24l-22.5-32.04c-2.09.2-4.27.3-6.56.3h-25.78v31.74h-14.9ZM870.23,1170.1h25.34c9.54,0,16.77-2.06,21.68-6.18,4.92-4.12,7.38-9.91,7.38-17.36s-2.46-13.21-7.38-17.29c-4.92-4.07-12.14-6.11-21.68-6.11h-25.34v46.94Z"/>
          <path class="cls-1" d="M1017.17,1214.52v-36.36l-41.43-67.96h15.95l33.38,54.84,33.53-54.84h14.75l-41.43,67.96v36.36h-14.75Z"/>
        </g>
      </g>
      <path class="cls-2" d="M525.22,0l-19.25,84.51c-20.2,6.19-39.73,14.35-58.33,24.38l-49.12-30.89c.24-1.12.36-2.27.37-3.42,0-4.35-1.73-8.51-4.8-11.59-3.07-3.07-7.24-4.8-11.59-4.8-4.35,0-8.51,1.73-11.59,4.8-3.07,3.07-4.8,7.24-4.8,11.59,0,4.35,1.73,8.51,4.8,11.59,3.07,3.07,7.24,4.8,11.59,4.8,1.67,0,3.34-.27,4.93-.78l59.58,37.48,4.2-2.35c20.21-11.3,41.65-20.26,63.89-26.7l4.59-1.33,18.46-81.05h52.66v114.56c-44.89,1.37-86.97,14.08-123.41,35.37-2.57-1.58-5.52-2.41-8.54-2.42-4.35,0-8.51,1.73-11.59,4.8-3.07,3.07-4.8,7.24-4.8,11.59,0,4.35,1.73,8.51,4.8,11.59,3.07,3.07,7.24,4.8,11.59,4.8,8.95,0,16.24-7.2,16.37-16.15,34.11-20.01,73.47-31.98,115.57-33.35v47.3c-48.39,1.97-92.26,21.51-125.6,52.24l-137.54-137.54-57.86,57.86,46.13,73.35c-9.94,18.67-18.01,38.27-24.1,58.53l-61.74,14.06c-3.06-3-7.17-4.69-11.46-4.69-4.35,0-8.51,1.73-11.59,4.8-3.07,3.07-4.8,7.24-4.8,11.59,0,9.05,7.34,16.38,16.38,16.38,7.52-.01,14.07-5.14,15.88-12.45l70.14-15.97,1.31-4.63c6.33-22.3,15.19-43.8,26.39-64.1l2.31-4.19-44.25-70.36,37.24-37.24,81.01,81.01c-42.18,44.88-68.61,104.74-70.63,170.67h-130.85v81.82l84.51,19.25c6.19,20.2,14.35,39.73,24.38,58.33l-31.16,49.54c-.75-.11-1.5-.17-2.26-.17-4.35,0-8.51,1.73-11.59,4.8-3.07,3.07-4.8,7.24-4.8,11.59,0,9.05,7.34,16.38,16.38,16.38,9.05,0,16.38-7.33,16.38-16.38,0-2.14-.43-4.25-1.24-6.23l37.05-58.9-2.35-4.2c-11.3-20.21-20.26-41.65-26.71-63.89l-1.33-4.59-81.05-18.46v-52.66h130.64v-8.11c0-64.74,25.1-123.52,66.09-167.3l44.78,44.78,5.74-5.74c32.83-32.83,78.12-53.12,128.25-53.12,100.27,0,181.38,81.11,181.38,181.37s-81.11,181.38-181.38,181.38c-50.13,0-95.4-20.27-128.83-53.7l-5.76-5.76-44.59,44.97c-28.36-30.44-49.05-68.1-59.01-109.92,2.86-3.03,4.46-7.04,4.47-11.21,0-4.35-1.73-8.51-4.8-11.59-3.07-3.07-7.24-4.8-11.59-4.8-4.35,0-8.51,1.73-11.59,4.8-3.07,3.07-4.8,7.24-4.8,11.59,0,7.65,5.31,14.27,12.77,15.96,10.77,44.42,32.89,84.41,63.12,116.69l-92.09,92.87,57.83,57.83,73.35-46.13c18.67,9.94,38.27,18.01,58.53,24.1l19.28,84.65h147.42l1.44-6.31,17.81-78.2c20.2-6.19,39.73-14.35,58.33-24.38l68.1,42.83,5.48,3.45,4.58-4.58,47.55-47.55,47.55-47.55,4.58-4.58-3.44-5.47h0s-42.69-67.88-42.69-67.88c9.94-18.67,18.01-38.27,24.1-58.53l78.34-17.84,6.31-1.44v-147.42l-6.31-1.44-78.2-17.81c-6.19-20.2-14.35-39.73-24.38-58.33l42.83-68.1s0,0,0,0l3.44-5.47-4.58-4.58-47.55-47.55-47.55-47.55-4.58-4.58-5.48,3.45-67.87,42.69c-18.67-9.94-38.27-18.01-58.53-24.1l-17.84-78.34L672.65,0h-73.71s-73.71,0-73.71,0ZM434.06,281.23c-9.05,0-16.38,7.33-16.38,16.38,0,3.27.99,6.47,2.83,9.17-12.27,25.74-19.16,54.55-19.16,84.93s6.67,58.35,18.61,83.8c-1.48,2.51-2.27,5.37-2.27,8.29,0,4.35,1.73,8.51,4.8,11.59,3.07,3.07,7.24,4.8,11.59,4.8,4.35,0,8.51-1.73,11.59-4.8,3.07-3.07,4.8-7.24,4.8-11.59,0-9.04-7.32-16.37-16.36-16.38-10.6-23.03-16.52-48.65-16.52-75.7s6.29-54.19,17.49-77.75c8.65-.52,15.39-7.69,15.4-16.35,0-9.05-7.34-16.38-16.38-16.38ZM464.67,536.35c33.8,31.2,77.73,50.81,126.16,52.79v47.3c-42.13-1.37-81.51-13.36-115.64-33.39.05-.54.08-1.09.08-1.63,0-4.35-1.73-8.51-4.8-11.59-3.07-3.07-7.24-4.8-11.59-4.8-4.35,0-8.51,1.73-11.59,4.8-3.07,3.07-4.8,7.24-4.8,11.59,0,4.35,1.73,8.51,4.8,11.59,3.07,3.07,7.24,4.8,11.59,4.8,2.36,0,4.68-.52,6.82-1.51,36.83,21.89,79.53,34.98,125.12,36.38v114.56h-52.66l-18.5-81.25-4.62-1.31c-22.3-6.33-43.8-15.19-64.1-26.39l-4.19-2.31-70.36,44.25-37.26-37.26s125.54-126.6,125.54-126.6Z"/>
    </g>
  </g>
</svg>